<svg xmlns="http://www.w3.org/2000/svg" version="1.1" xmlns:xlink="http://www.w3.org/1999/xlink" xmlns:svgjs="http://svgjs.com/svgjs" width="1920" height="1080" preserveAspectRatio="none" viewBox="0 0 1920 1080"><g mask="url(&quot;#SvgjsMask1201&quot;)" fill="none"><rect width="1920" height="1080" x="0" y="0" fill="rgba(30, 34, 42, 1)"></rect><path d="M1071 808L1070 1119" stroke-width="10" stroke="url(#SvgjsLinearGradient1202)" stroke-linecap="round" class="Up"></path><path d="M1778 607L1777 282" stroke-width="10" stroke="url(#SvgjsLinearGradient1202)" stroke-linecap="round" class="Up"></path><path d="M1158 1024L1157 1668" stroke-width="10" stroke="url(#SvgjsLinearGradient1203)" stroke-linecap="round" class="Down"></path><path d="M587 502L586 999" stroke-width="8" stroke="url(#SvgjsLinearGradient1204)" stroke-linecap="round" class="Down"></path><path d="M710 991L709 1549" stroke-width="10" stroke="url(#SvgjsLinearGradient1205)" stroke-linecap="round" class="Down"></path><path d="M1684 69L1683 -470" stroke-width="6" stroke="url(#SvgjsLinearGradient1202)" stroke-linecap="round" class="Up"></path><path d="M132 820L131 524" stroke-width="8" stroke="url(#SvgjsLinearGradient1206)" stroke-linecap="round" class="Up"></path><path d="M1466 689L1465 115" stroke-width="8" stroke="url(#SvgjsLinearGradient1206)" stroke-linecap="round" class="Up"></path><path d="M100 38L99 -296" stroke-width="8" stroke="url(#SvgjsLinearGradient1205)" stroke-linecap="round" class="Down"></path><path d="M1916 649L1915 222" stroke-width="8" stroke="url(#SvgjsLinearGradient1205)" stroke-linecap="round" class="Down"></path><path d="M1813 419L1812 1193" stroke-width="6" stroke="url(#SvgjsLinearGradient1205)" stroke-linecap="round" class="Down"></path><path d="M33 317L32 -327" stroke-width="10" stroke="url(#SvgjsLinearGradient1206)" stroke-linecap="round" class="Up"></path><path d="M1097 709L1096 1339" stroke-width="8" stroke="url(#SvgjsLinearGradient1203)" stroke-linecap="round" class="Down"></path><path d="M16 1063L15 1653" stroke-width="10" stroke="url(#SvgjsLinearGradient1205)" stroke-linecap="round" class="Down"></path><path d="M1552 699L1551 10" stroke-width="10" stroke="url(#SvgjsLinearGradient1205)" stroke-linecap="round" class="Down"></path><path d="M1122 29L1121 599" stroke-width="6" stroke="url(#SvgjsLinearGradient1203)" stroke-linecap="round" class="Down"></path><path d="M1114 192L1113 -486" stroke-width="6" stroke="url(#SvgjsLinearGradient1202)" stroke-linecap="round" class="Up"></path><path d="M526 547L525 1189" stroke-width="8" stroke="url(#SvgjsLinearGradient1206)" stroke-linecap="round" class="Up"></path><path d="M1305 98L1304 -556" stroke-width="8" stroke="url(#SvgjsLinearGradient1205)" stroke-linecap="round" class="Down"></path><path d="M472 1069L471 1603" stroke-width="10" stroke="url(#SvgjsLinearGradient1204)" stroke-linecap="round" class="Down"></path><path d="M319 393L318 1128" stroke-width="8" stroke="url(#SvgjsLinearGradient1206)" stroke-linecap="round" class="Up"></path><path d="M1017 895L1016 263" stroke-width="8" stroke="url(#SvgjsLinearGradient1204)" stroke-linecap="round" class="Down"></path><path d="M1272 929L1271 465" stroke-width="10" stroke="url(#SvgjsLinearGradient1204)" stroke-linecap="round" class="Down"></path><path d="M296 217L295 726" stroke-width="8" stroke="url(#SvgjsLinearGradient1204)" stroke-linecap="round" class="Down"></path><path d="M1176 814L1175 1351" stroke-width="8" stroke="url(#SvgjsLinearGradient1204)" stroke-linecap="round" class="Down"></path><path d="M1520 85L1519 601" stroke-width="6" stroke="url(#SvgjsLinearGradient1204)" stroke-linecap="round" class="Down"></path><path d="M812 461L811 108" stroke-width="8" stroke="url(#SvgjsLinearGradient1202)" stroke-linecap="round" class="Up"></path><path d="M1624 315L1623 958" stroke-width="8" stroke="url(#SvgjsLinearGradient1206)" stroke-linecap="round" class="Up"></path><path d="M1857 428L1856 1127" stroke-width="10" stroke="url(#SvgjsLinearGradient1205)" stroke-linecap="round" class="Down"></path><path d="M616 480L615 906" stroke-width="8" stroke="url(#SvgjsLinearGradient1203)" stroke-linecap="round" class="Down"></path><path d="M173 185L172 503" stroke-width="6" stroke="url(#SvgjsLinearGradient1202)" stroke-linecap="round" class="Up"></path><path d="M537 1063L536 484" stroke-width="10" stroke="url(#SvgjsLinearGradient1202)" stroke-linecap="round" class="Up"></path><path d="M857 490L856 799" stroke-width="10" stroke="url(#SvgjsLinearGradient1205)" stroke-linecap="round" class="Down"></path><path d="M20 574L19 1281" stroke-width="6" stroke="url(#SvgjsLinearGradient1206)" stroke-linecap="round" class="Up"></path><path d="M1610 776L1609 363" stroke-width="6" stroke="url(#SvgjsLinearGradient1202)" stroke-linecap="round" class="Up"></path><path d="M812 1023L811 1526" stroke-width="6" stroke="url(#SvgjsLinearGradient1203)" stroke-linecap="round" class="Down"></path><path d="M386 931L385 1233" stroke-width="8" stroke="url(#SvgjsLinearGradient1206)" stroke-linecap="round" class="Up"></path><path d="M1540 887L1539 1665" stroke-width="6" stroke="url(#SvgjsLinearGradient1202)" stroke-linecap="round" class="Up"></path><path d="M418 981L417 356" stroke-width="8" stroke="url(#SvgjsLinearGradient1206)" stroke-linecap="round" class="Up"></path><path d="M445 596L444 59" stroke-width="10" stroke="url(#SvgjsLinearGradient1207)" stroke-linecap="round" class="Up"></path><path d="M1493 545L1492 1277" stroke-width="6" stroke="url(#SvgjsLinearGradient1204)" stroke-linecap="round" class="Down"></path><path d="M1582 501L1581 966" stroke-width="8" stroke="url(#SvgjsLinearGradient1205)" stroke-linecap="round" class="Down"></path><path d="M1764 629L1763 130" stroke-width="8" stroke="url(#SvgjsLinearGradient1206)" stroke-linecap="round" class="Up"></path><path d="M275 269L274 -17" stroke-width="8" stroke="url(#SvgjsLinearGradient1205)" stroke-linecap="round" class="Down"></path><path d="M790 676L789 948" stroke-width="8" stroke="url(#SvgjsLinearGradient1206)" stroke-linecap="round" class="Up"></path><path d="M353 911L352 1641" stroke-width="10" stroke="url(#SvgjsLinearGradient1202)" stroke-linecap="round" class="Up"></path><path d="M792 992L791 517" stroke-width="8" stroke="url(#SvgjsLinearGradient1202)" stroke-linecap="round" class="Up"></path><path d="M67 347L66 1018" stroke-width="6" stroke="url(#SvgjsLinearGradient1205)" stroke-linecap="round" class="Down"></path></g><defs><mask id="SvgjsMask1201"><rect width="1920" height="1080" fill="#ffffff"></rect></mask><linearGradient x1="0%" y1="100%" x2="0%" y2="0%" id="SvgjsLinearGradient1202"><stop stop-color="rgba(211, 115, 172, 0)" offset="0"></stop><stop stop-color="rgba(211, 115, 172, 1)" offset="1"></stop></linearGradient><linearGradient x1="0%" y1="0%" x2="0%" y2="100%" id="SvgjsLinearGradient1203"><stop stop-color="rgba(97, 175, 239, 0)" offset="0"></stop><stop stop-color="rgba(97, 175, 239, 1)" offset="1"></stop></linearGradient><linearGradient x1="0%" y1="0%" x2="0%" y2="100%" id="SvgjsLinearGradient1204"><stop stop-color="rgba(211, 115, 172, 0)" offset="0"></stop><stop stop-color="rgba(211, 115, 172, 1)" offset="1"></stop></linearGradient><linearGradient x1="0%" y1="0%" x2="0%" y2="100%" id="SvgjsLinearGradient1205"><stop stop-color="rgba(221, 110, 130, 0)" offset="0"></stop><stop stop-color="rgba(221, 110, 130, 1)" offset="1"></stop></linearGradient><linearGradient x1="0%" y1="100%" x2="0%" y2="0%" id="SvgjsLinearGradient1206"><stop stop-color="rgba(97, 175, 239, 0)" offset="0"></stop><stop stop-color="rgba(97, 175, 239, 1)" offset="1"></stop></linearGradient><linearGradient x1="0%" y1="100%" x2="0%" y2="0%" id="SvgjsLinearGradient1207"><stop stop-color="rgba(221, 110, 130, 0)" offset="0"></stop><stop stop-color="rgba(221, 110, 130, 1)" offset="1"></stop></linearGradient></defs></svg>