<svg xmlns="http://www.w3.org/2000/svg" version="1.1" xmlns:xlink="http://www.w3.org/1999/xlink" xmlns:svgjs="http://svgjs.com/svgjs" width="1920" height="1080" preserveAspectRatio="none" viewBox="0 0 1920 1080"><g mask="url(&quot;#SvgjsMask1030&quot;)" fill="none"><rect width="1920" height="1080" x="0" y="0" fill="rgba(30, 34, 42, 1)"></rect><path d="M0,551.351C113.134,540.038,233.159,572.697,332.446,517.296C434.04,460.608,505.328,358.094,543.377,248.152C579.605,143.473,567.667,29.406,538.258,-77.39C511.32,-175.21,442.888,-250.044,383.525,-332.326C317.87,-423.328,274.254,-539.38,171.848,-585.26C65.557,-632.88,-56.912,-606.468,-170.456,-580.519C-289.915,-553.218,-410.964,-517.688,-498.598,-432.037C-590.027,-342.677,-664.177,-223.638,-666.384,-95.812C-668.522,28.019,-558.17,118.815,-510.08,232.946C-459.997,351.809,-487.526,520.051,-378.11,588.351C-268.462,656.796,-128.616,564.212,0,551.351" fill="#181b22"></path><path d="M1920 1552.106C2006.2930000000001 1536.587 2073.866 1479.7269999999999 2153.945 1444.025 2251.85 1400.376 2382.854 1407.554 2443.099 1318.891 2503.475 1230.036 2486.304 1105.574 2453.409 1003.307 2423.044 908.906 2330.908 855.057 2268.987 777.601 2203.776 696.03 2181.538 559.307 2079.758 535.915 1976.792 512.251 1893.592 621.607 1799.527 669.7080000000001 1724.9859999999999 707.826 1652.938 741.11 1584.415 789.2139999999999 1494.201 852.546 1375.1860000000001 893.273 1334.913 995.877 1293.094 1102.421 1318.161 1229.2640000000001 1372.059 1330.2359999999999 1424.609 1428.684 1521.476 1497.282 1624.913 1539.165 1718.059 1576.8809999999999 1821.095 1569.893 1920 1552.106" fill="#242932"></path></g><defs><mask id="SvgjsMask1030"><rect width="1920" height="1080" fill="#ffffff"></rect></mask></defs></svg>